<?xml version="1.0" standalone="no"?>
<!DOCTYPE svg PUBLIC "-//W3C//DTD SVG 1.1//EN" "http://www.w3.org/Graphics/SVG/1.1/DTD/svg11.dtd" >
<svg xmlns="http://www.w3.org/2000/svg">
<metadata>Generated by IcoMoon</metadata>
<defs>
<font id="mni" horiz-adv-x="1024">
<font-face units-per-em="1024" ascent="960" descent="-64" />
<missing-glyph horiz-adv-x="1024" />
<glyph unicode="&#x20;" horiz-adv-x="512" d="" />
<glyph unicode="&#xe900;" glyph-name="about" d="M12.192 448c0 44.064 0 84 0.48 120.32 2.816 9.728 6.176 18.272 10.176 26.112 20.352 39.968 52.864 72.448 92.832 92.832 20.576 10.464 45.952 16.672 85.28 19.872 7.488 0.608 15.328 1.12 23.648 1.504v-202.208c0-23.36 0-42.528 0.864-57.632 0.864-14.88 2.688-30.304 8.8-44.032 22.048-49.664 76.48-76.448 129.312-63.648 14.624 3.552 27.968 11.488 40.288 19.904 12.48 8.512 27.68 20.192 46.176 34.464l0.928 0.704c23.456 18.048 30.048 22.784 36.128 25.44 15.872 6.912 33.92 6.912 49.792 0 6.048-2.624 12.672-7.36 36.128-25.44l0.928-0.704c18.528-14.272 33.696-25.952 46.176-34.464 12.32-8.384 25.632-16.352 40.288-19.904 52.832-12.832 107.232 13.952 129.312 63.648 6.112 13.76 7.968 29.184 8.8 44.032 0.864 15.072 0.864 34.24 0.864 57.632v202.208c8.288-0.416 16.16-0.896 23.648-1.504 39.36-3.2 64.736-9.408 85.28-19.872 39.968-20.352 72.48-52.864 92.832-92.832 4-7.84 7.36-16.384 10.176-26.112 0.48-36.288 0.48-76.256 0.48-120.32 0-235.616 0-353.408-73.184-426.624s-191.008-73.184-426.624-73.184c-235.616 0-353.408 0-426.624 73.184s-73.184 191.008-73.184 426.624zM1003.968 711.744c-8.672 73.664-26.912 124.416-65.376 162.88-73.184 73.184-191.008 73.184-426.624 73.184s-353.408 0-426.624-73.184c-38.432-38.432-56.704-89.216-65.376-162.88 18.496 16.64 39.2 30.88 61.632 42.304 32.896 16.768 69.248 24.192 113.216 27.808 43.2 3.52 96.96 3.52 165.504 3.52h303.232c68.544 0 122.304 0 165.504-3.52 44-3.584 80.32-11.040 113.216-27.808 22.432-11.424 43.104-25.696 61.632-42.304zM299.584 507.584v202.688c18.944 0.128 39.68 0.128 62.464 0.128h299.872c22.784 0 43.52 0 62.464-0.128v-202.688c0-24.832-0.032-41.824-0.736-54.464-0.768-13.12-2.144-17.152-2.496-17.92-7.36-16.544-25.504-25.472-43.104-21.216-0.832 0.192-4.864 1.568-15.712 8.96-10.464 7.136-23.936 17.504-43.616 32.64l-3.36 2.592c-18.496 14.272-32.928 25.376-48.64 32.192-34.944 15.168-74.592 15.168-109.536 0-15.712-6.816-30.144-17.952-48.64-32.192l-3.36-2.592c-19.68-15.136-33.152-25.504-43.616-32.64-10.848-7.392-14.912-8.768-15.712-8.96-17.6-4.288-35.744 4.64-43.104 21.216-0.352 0.768-1.728 4.8-2.496 17.92-0.736 12.672-0.736 29.664-0.736 54.464z" />
<glyph unicode="&#xe901;" glyph-name="academic" d="M606.592 810.688c-60.64 28.416-128.576 28.416-189.216 0l-183.168-85.888c33.376-3.584 63.872-24.608 78.016-57.664 20.896-48.736-1.696-105.184-50.432-126.048l-45.888-19.68c-22.816-9.76-35.744-15.424-44.48-19.904-0.064-0.704-0.096-1.408-0.128-2.144l246.112-115.36c60.64-28.416 128.576-28.416 189.216 0l285.472 133.856c62.112 29.12 62.112 129.888 0 159.008l-285.504 133.856zM213.312 408.96v-158.336c0-43.008 21.472-83.264 59.104-104.128 62.656-34.688 162.944-82.528 239.552-82.528s176.896 47.84 239.552 82.528c37.632 20.832 59.104 61.12 59.104 104.128v158.304l-176.896-82.944c-77.856-36.48-165.696-36.48-243.552 0l-176.896 82.944zM236.608 599.904c16.256 6.976 23.776 25.76 16.8 42.016s-25.76 23.776-42.016 16.8l-47.424-20.32c-23.776-10.208-43.936-18.816-59.776-27.744-16.832-9.472-31.328-20.576-42.176-37.024s-15.36-34.144-17.44-53.344c-1.952-18.048-1.952-39.968-1.952-65.856v-123.776c0-17.664 14.336-32 32-32s32 14.336 32 32v122.144c0 27.968 0.032 46.432 1.568 60.64 1.44 13.44 4 20.064 7.232 24.992s8.352 9.856 20.128 16.48c12.448 7.008 29.408 14.304 55.104 25.344l45.888 19.68z" />
<glyph unicode="&#xe902;" glyph-name="academic-cap" d="M606.592 810.688c-60.64 28.416-128.576 28.416-189.216 0l-183.168-85.888c33.376-3.584 63.872-24.608 78.016-57.664 20.896-48.736-1.696-105.184-50.432-126.048l-45.888-19.68c-22.816-9.76-35.744-15.424-44.48-19.904-0.064-0.704-0.096-1.408-0.128-2.144l246.112-115.36c60.64-28.416 128.576-28.416 189.216 0l285.472 133.856c62.112 29.12 62.112 129.888 0 159.008l-285.504 133.856zM213.312 408.96v-158.336c0-43.008 21.472-83.264 59.104-104.128 62.656-34.688 162.944-82.528 239.552-82.528s176.896 47.84 239.552 82.528c37.632 20.832 59.104 61.12 59.104 104.128v158.304l-176.896-82.944c-77.856-36.48-165.696-36.48-243.552 0l-176.896 82.944zM236.608 599.904c16.256 6.976 23.776 25.76 16.8 42.016s-25.76 23.776-42.016 16.8l-47.424-20.32c-23.776-10.208-43.936-18.816-59.776-27.744-16.832-9.472-31.328-20.576-42.176-37.024s-15.36-34.144-17.44-53.344c-1.952-18.048-1.952-39.968-1.952-65.856v-123.776c0-17.664 14.336-32 32-32s32 14.336 32 32v122.144c0 27.968 0.032 46.432 1.568 60.64 1.44 13.44 4 20.064 7.232 24.992s8.352 9.856 20.128 16.48c12.448 7.008 29.408 14.304 55.104 25.344l45.888 19.68z" />
<glyph unicode="&#xe903;" glyph-name="Alt-Arrow-Left" d="M641.985 776.35c13.032-11.174 14.545-30.8 3.371-43.835l-231.361-269.922 231.361-269.919c11.173-13.036 9.661-32.662-3.371-43.835-13.036-11.173-32.662-9.665-43.835 3.371l-248.704 290.15c-9.979 11.642-9.979 28.822 0 40.464l248.704 290.154c11.173 13.036 30.799 14.546 43.835 3.372z" />
<glyph unicode="&#xe904;" glyph-name="Alt-Arrow-Right" d="M378.399 758.539c12.902 11.059 32.327 9.565 43.386-3.337l246.154-287.178c9.878-11.524 9.878-28.526 0-40.050l-246.154-287.181c-11.059-12.898-30.484-14.395-43.386-3.336s-14.396 30.484-3.337 43.386l228.992 267.154-228.992 267.157c-11.059 12.902-9.565 32.327 3.337 43.386z" />
<glyph unicode="&#xe905;" glyph-name="aparat" d="M303.744 959.968c-1.184 0.032-2.56 0.032-3.936 0.032-83.488 0-153.376-58.112-171.488-136.064l-0.224-1.184-26.464-117.28c76.288 121.184 204.384 206.432 353.28 224l-116.32 26.208c-10.368 2.432-22.368 4-34.656 4.256h-0.192zM512 879.2c-238.176 0-431.2-193.024-431.2-431.2 0-238.112 193.024-431.2 431.2-431.2s431.2 193.12 431.2 431.2c0 238.176-193.024 431.2-431.2 431.2zM769.44 858.4c121.184-76.32 206.368-204.448 224-353.28l26.24 116.32c2.752 11.68 4.352 25.056 4.352 38.848 0 83.488-58.112 153.408-136.096 171.488l-1.184 0.224zM404.224 744.48c59.552 0 107.808-48.288 107.808-107.808s-48.256-107.808-107.808-107.808v0c-58.624 1.216-105.664 48.992-105.664 107.808s47.072 106.592 105.568 107.808h0.128zM700.672 663.584c58.624-1.216 105.664-48.992 105.664-107.808s-47.072-106.592-105.568-107.808h-0.096c-58.624 1.216-105.664 48.992-105.664 107.808s47.072 106.592 105.568 107.808h0.096zM512.352 503.136c29.6-0.224 53.504-24.256 53.504-53.888 0-0.416 0-0.8 0-1.216v0.064c-0.832-29.12-24.64-52.416-53.856-52.416s-52.992 23.232-53.856 52.256v0.096c0 0.384 0 0.8 0 1.248 0 29.76 24.128 53.888 53.888 53.888 0.096 0 0.224 0 0.32 0h-0.032zM323.328 448c58.624-1.216 105.664-48.992 105.664-107.808s-47.072-106.592-105.568-107.808h-0.128c-58.624 1.216-105.664 48.992-105.664 107.808s47.072 106.592 105.568 107.808h0.128zM30.624 390.912l-26.368-116.256c-2.752-11.68-4.32-25.056-4.32-38.816 0-83.488 58.144-153.408 136.128-171.488l1.184-0.224 117.248-26.464c-121.184 76.32-206.368 204.384-223.968 353.28zM619.808 367.136c58.624-1.216 105.664-48.992 105.664-107.808s-47.072-106.592-105.568-107.808h-0.096c-58.624 1.216-105.664 48.992-105.664 107.808s47.072 106.592 105.568 107.808h0.096zM922.4 190.56c-76.32-121.184-204.416-206.368-353.28-223.968l116.256-26.24c11.648-2.752 25.056-4.32 38.784-4.32 83.488 0 153.408 58.112 171.488 136.096l0.224 1.184z" />
<glyph unicode="&#xe906;" glyph-name="award" d="M639.403 301.909l32-241.152-137.429 82.475c-13.269 7.851-29.995 8.363-43.904 0l-137.429-82.475 32.043 241.109c39.296-15.829 82.304-24.533 127.317-24.533s88.021 8.747 127.403 24.576zM654.165 405.717c-2.475-1.28-4.821-2.773-6.955-4.48-39.253-24.448-85.547-38.571-135.211-38.571-70.699 0-134.656 28.587-181.035 74.965s-74.965 110.336-74.965 181.035 28.587 134.656 74.965 181.035 110.336 74.965 181.035 74.965 134.656-28.587 181.035-74.965 74.965-110.336 74.965-181.035-28.587-134.656-74.965-181.035c-11.861-11.861-24.875-22.571-38.869-31.915zM304.64 347.52l-48.256-363.221c-3.115-23.339 13.312-44.8 36.693-47.915 9.984-1.323 19.669 0.939 27.563 5.717l191.36 114.816 191.403-114.816c20.224-12.117 46.421-5.589 58.539 14.635 5.205 8.661 6.955 18.389 5.717 27.563l-48.213 363.307c11.947 9.173 23.296 19.115 33.92 29.739 61.696 61.696 99.968 147.072 99.968 241.323s-38.272 179.627-99.968 241.365-147.115 99.968-241.365 99.968-179.627-38.272-241.365-99.968-99.968-147.115-99.968-241.365 38.272-179.627 99.968-241.365c10.667-10.667 22.016-20.608 33.963-29.781z" />
<glyph unicode="&#xe907;" glyph-name="award1" d="M639.392 301.92l32-241.152-137.44 82.464c-13.28 7.84-29.984 8.352-43.904 0l-137.44-82.464 32.032 241.12c39.296-15.84 82.304-24.544 127.328-24.544s88.032 8.736 127.392 24.576zM654.176 405.728c-2.464-1.28-4.832-2.784-6.944-4.48-39.264-24.448-85.536-38.56-135.2-38.56-70.688 0-134.656 28.576-181.024 74.976s-74.976 110.336-74.976 181.024 28.576 134.656 74.976 181.024 110.336 74.976 181.024 74.976 134.656-28.576 181.024-74.976 74.976-110.336 74.976-181.024-28.576-134.656-74.976-181.024c-11.872-11.872-24.864-22.56-38.88-31.904zM304.64 347.52l-48.256-363.232c-3.104-23.328 13.312-44.8 36.704-47.904 9.984-1.312 19.68 0.928 27.552 5.728l191.36 114.816 191.392-114.816c20.224-12.128 46.432-5.6 58.528 14.624 5.216 8.672 6.944 18.4 5.728 27.552l-48.224 363.296c11.936 9.184 23.296 19.104 33.92 29.728 61.696 61.696 99.968 147.072 99.968 241.312s-38.272 179.616-99.968 241.376-147.104 99.968-241.376 99.968-179.616-38.272-241.376-99.968-99.968-147.104-99.968-241.376 38.272-179.616 99.968-241.376c10.656-10.656 22.016-20.608 33.952-29.792z" />
<glyph unicode="&#xe909;" glyph-name="bill" d="M85.344 906.656c-17.664 0-32-14.336-32-32s14.336-32 32-32h85.344v-406.496c0-57.184 0-85.76 11.424-110.976s32.96-44.032 76-81.696l85.344-74.656c80.32-70.272 120.48-105.408 168.576-105.408s88.256 35.136 168.576 105.408l85.344 74.656c43.040 37.664 64.544 56.48 76 81.696s11.424 53.792 11.424 110.976v406.496h85.344c17.664 0 32 14.336 32 32s-14.336 32-32 32h-853.344zM362.656 437.344c-17.664 0-32-14.336-32-32s14.336-32 32-32h298.656c17.664 0 32 14.336 32 32s-14.336 32-32 32h-298.656zM330.656 618.656c0 17.664 14.336 32 32 32h298.656c17.664 0 32-14.336 32-32s-14.336-32-32-32h-298.656c-17.664 0-32 14.336-32 32z" />
<glyph unicode="&#xe90a;" glyph-name="bookmark" d="M785.877 29.269c6.869-4.949 15.488-7.936 24.789-7.936 23.552 0 42.667 19.115 42.667 42.667v682.667c0 35.328-14.379 67.413-37.504 90.496s-55.168 37.504-90.496 37.504h-426.667c-35.328 0-67.413-14.379-90.496-37.504s-37.504-55.168-37.504-90.496v-682.667c-0.043-8.491 2.56-17.237 7.936-24.789 13.696-19.157 40.363-23.637 59.52-9.899l273.877 195.584zM768 146.901l-231.211 165.163c-15.147 10.837-34.944 10.325-49.579 0l-231.211-165.163v599.765c0 11.776 4.736 22.4 12.501 30.165s18.389 12.501 30.165 12.501h426.667c11.776 0 22.4-4.736 30.165-12.501s12.501-18.389 12.501-30.165z" />
<glyph unicode="&#xe90b;" glyph-name="bookmark1" d="M785.888 29.28c6.88-4.96 15.488-7.936 24.8-7.936 23.552 0 42.656 19.104 42.656 42.656v682.656c0 35.328-14.368 67.424-37.504 90.496s-55.168 37.504-90.496 37.504h-426.656c-35.328 0-67.424-14.368-90.496-37.504s-37.504-55.168-37.504-90.496v-682.656c-0.032-8.48 2.56-17.248 7.936-24.8 13.696-19.168 40.352-23.648 59.52-9.888l273.888 195.584zM768 146.912l-231.2 165.152c-15.136 10.848-34.944 10.336-49.568 0l-231.2-165.152v599.776c0 11.776 4.736 22.4 12.512 30.176s18.4 12.512 30.176 12.512h426.656c11.776 0 22.4-4.736 30.176-12.512s12.512-18.4 12.512-30.176z" />
<glyph unicode="&#xe90c;" glyph-name="calendar" d="M938.688 864h-138.688v64c0 17.696-14.304 32-32 32s-32-14.304-32-32v-64h-192v64c0 17.696-14.336 32-32 32s-32-14.304-32-32v-64h-192v64c0 17.696-14.336 32-32 32s-32-14.304-32-32v-64h-138.656c-47.136 0-85.344-38.176-85.344-85.312v-757.344c0-47.136 38.208-85.344 85.344-85.344h853.344c47.136 0 85.312 38.208 85.312 85.344v757.344c0 47.136-38.176 85.312-85.312 85.312zM960 21.344c0-11.776-9.568-21.344-21.312-21.344h-853.344c-11.776 0-21.344 9.568-21.344 21.344v757.344c0 11.744 9.568 21.312 21.344 21.312h138.656v-64c0-17.696 14.336-32 32-32s32 14.304 32 32v64h192v-64c0-17.696 14.336-32 32-32s32 14.304 32 32v64h192v-64c0-17.696 14.304-32 32-32s32 14.304 32 32v64h138.688c11.744 0 21.312-9.568 21.312-21.312v-757.344zM224 576h128v-96h-128zM224 416h128v-96h-128zM224 256h128v-96h-128zM448 256h128v-96h-128zM448 416h128v-96h-128zM448 576h128v-96h-128zM672 256h128v-96h-128zM672 416h128v-96h-128zM672 576h128v-96h-128z" />
<glyph unicode="&#xe90d;" glyph-name="cart" d="M362.432 448h0.384z" />
<glyph unicode="&#xe90e;" glyph-name="categ" d="M39.2 914.752c-19.584 0-35.456-15.872-35.456-35.456s15.872-35.456 35.456-35.456h94.56v-450.464c0-63.36 0-95.040 12.672-122.976s36.512-48.8 84.192-90.528l94.56-82.752c88.992-77.888 133.504-116.832 186.816-116.832s97.792 38.944 186.816 116.832l94.56 82.752c47.68 41.728 71.52 62.592 84.192 90.528s12.672 59.616 12.672 122.976v450.464h94.56c19.584 0 35.456 15.872 35.456 35.456s-15.872 35.456-35.456 35.456h-945.6zM346.528 394.656c-19.584 0-35.456-15.872-35.456-35.456s15.872-35.456 35.456-35.456h330.944c19.584 0 35.456 15.872 35.456 35.456s-15.872 35.456-35.456 35.456h-330.944zM311.072 595.616c0 19.584 15.872 35.456 35.456 35.456h330.944c19.584 0 35.456-15.872 35.456-35.456s-15.872-35.456-35.456-35.456h-330.944c-19.584 0-35.456 15.872-35.456 35.456z" />
<glyph unicode="&#xe90f;" glyph-name="chevron-down" d="M225.835 545.835l256-256c16.683-16.683 43.691-16.683 60.331 0l256 256c16.683 16.683 16.683 43.691 0 60.331s-43.691 16.683-60.331 0l-225.835-225.835-225.835 225.835c-16.683 16.683-43.691 16.683-60.331 0s-16.683-43.691 0-60.331z" />
<glyph unicode="&#xe910;" glyph-name="chevron-down1" d="M225.824 545.824l256-256c16.672-16.672 43.68-16.672 60.32 0l256 256c16.672 16.672 16.672 43.68 0 60.32s-43.68 16.672-60.32 0l-225.824-225.824-225.824 225.824c-16.672 16.672-43.68 16.672-60.32 0s-16.672-43.68 0-60.32z" />
<glyph unicode="&#xe911;" glyph-name="chevron-left" d="M670.165 222.165l-225.835 225.835 225.835 225.835c16.683 16.683 16.683 43.691 0 60.331s-43.691 16.683-60.331 0l-256-256c-16.683-16.683-16.683-43.691 0-60.331l256-256c16.683-16.683 43.691-16.683 60.331 0s16.683 43.691 0 60.331z" />
<glyph unicode="&#xe912;" glyph-name="chevron-left1" d="M660.832 770.976c13.408-11.488 14.976-31.712 3.456-45.12l-238.144-277.856 238.144-277.856c11.488-13.408 9.952-33.632-3.456-45.12s-33.632-9.952-45.12 3.488l-256 298.656c-10.272 12-10.272 29.664 0 41.664l256 298.656c11.488 13.408 31.712 14.976 45.12 3.456z" />
<glyph unicode="&#xe913;" glyph-name="chevron-left2" d="M670.176 222.176l-225.824 225.824 225.824 225.824c16.672 16.672 16.672 43.68 0 60.32s-43.68 16.672-60.32 0l-256-256c-16.672-16.672-16.672-43.68 0-60.32l256-256c16.672-16.672 43.68-16.672 60.32 0s16.672 43.68 0 60.32z" />
<glyph unicode="&#xe915;" glyph-name="chevron-right" d="M414.165 161.835l256 256c16.683 16.683 16.683 43.691 0 60.331l-256 256c-16.683 16.683-43.691 16.683-60.331 0s-16.683-43.691 0-60.331l225.835-225.835-225.835-225.835c-16.683-16.683-16.683-43.691 0-60.331s43.691-16.683 60.331 0z" />
<glyph unicode="&#xe916;" glyph-name="chevron-right1" d="M414.176 161.824l256 256c16.672 16.672 16.672 43.68 0 60.32l-256 256c-16.672 16.672-43.68 16.672-60.32 0s-16.672-43.68 0-60.32l225.824-225.824-225.824-225.824c-16.672-16.672-16.672-43.68 0-60.32s43.68-16.672 60.32 0z" />
<glyph unicode="&#xe917;" glyph-name="chevron-up" d="M798.165 350.165l-256 256c-16.683 16.683-43.691 16.683-60.331 0l-256-256c-16.683-16.683-16.683-43.691 0-60.331s43.691-16.683 60.331 0l225.835 225.835 225.835-225.835c16.683-16.683 43.691-16.683 60.331 0s16.683 43.691 0 60.331z" />
<glyph unicode="&#xe918;" glyph-name="chevron-up1" d="M798.176 350.176l-256 256c-16.672 16.672-43.68 16.672-60.32 0l-256-256c-16.672-16.672-16.672-43.68 0-60.32s43.68-16.672 60.32 0l225.824 225.824 225.824-225.824c16.672-16.672 43.68-16.672 60.32 0s16.672 43.68 0 60.32z" />
<glyph unicode="&#xe919;" glyph-name="comp" d="M836.923 595.692c0-190.325-146.941-344.615-328.205-344.615s-328.205 154.291-328.205 344.615c0 190.326 146.942 344.615 328.205 344.615s328.205-154.289 328.205-344.615zM278.645 253.963l-17.759-68.015c-29.461-112.832-44.191-169.246-24.534-200.129 6.889-10.823 16.13-19.511 26.854-25.246 30.599-16.358 77.845 9.492 172.336 61.188 31.439 17.201 47.162 25.802 63.863 27.672 6.191 0.693 12.43 0.693 18.621 0 16.704-1.869 32.424-10.468 63.863-27.672 94.492-51.696 141.737-77.546 172.337-61.188 10.726 5.734 19.965 14.423 26.855 25.246 19.656 30.883 4.926 87.297-24.534 200.129l-17.76 68.015c-64.99-48.33-144.371-76.732-230.072-76.732-85.698 0-165.079 28.402-230.070 76.732z" />
<glyph unicode="&#xe91a;" glyph-name="Component-2" d="M836.923 595.692c0-190.325-146.941-344.615-328.205-344.615s-328.205 154.291-328.205 344.615c0 190.326 146.942 344.615 328.205 344.615s328.205-154.289 328.205-344.615zM278.645 253.963l-17.759-68.015c-29.461-112.832-44.191-169.246-24.534-200.129 6.889-10.823 16.13-19.511 26.854-25.246 30.599-16.358 77.845 9.492 172.336 61.188 31.439 17.201 47.162 25.802 63.863 27.672 6.191 0.693 12.43 0.693 18.621 0 16.704-1.869 32.424-10.468 63.863-27.672 94.492-51.696 141.737-77.546 172.337-61.188 10.726 5.734 19.965 14.423 26.855 25.246 19.656 30.883 4.926 87.297-24.534 200.129l-17.76 68.015c-64.99-48.33-144.371-76.732-230.072-76.732-85.698 0-165.079 28.402-230.070 76.732z" />
<glyph unicode="&#xe91b;" glyph-name="corner-left-down" d="M853.333 832h-298.667c-58.88 0-112.299-23.936-150.869-62.464s-62.464-91.989-62.464-150.869v-409.003l-140.501 140.501c-16.683 16.683-43.691 16.683-60.331 0s-16.683-43.691 0-60.331l213.333-213.333c3.925-3.925 8.619-7.083 13.824-9.259 10.453-4.309 22.229-4.309 32.683 0 5.035 2.091 9.728 5.163 13.824 9.259l213.333 213.333c16.683 16.683 16.683 43.691 0 60.331s-43.691 16.683-60.331 0l-140.501-140.501v409.003c0 35.371 14.293 67.285 37.504 90.496s55.125 37.504 90.496 37.504h298.667c23.552 0 42.667 19.115 42.667 42.667s-19.115 42.667-42.667 42.667z" />
<glyph unicode="&#xe91c;" glyph-name="corner-left-down1" d="M853.344 832h-298.656c-58.88 0-112.288-23.936-150.88-62.464s-62.464-92-62.464-150.88v-408.992l-140.512 140.512c-16.672 16.672-43.68 16.672-60.32 0s-16.672-43.68 0-60.32l213.344-213.344c3.936-3.936 8.608-7.072 13.824-9.248 10.464-4.32 22.24-4.32 32.672 0 5.024 2.080 9.728 5.152 13.824 9.248l213.344 213.344c16.672 16.672 16.672 43.68 0 60.32s-43.68 16.672-60.32 0l-140.512-140.512v408.992c0 35.36 14.304 67.296 37.504 90.496s55.136 37.504 90.496 37.504h298.656c23.552 0 42.656 19.104 42.656 42.656s-19.104 42.656-42.656 42.656z" />
<glyph unicode="&#xe91d;" glyph-name="corner-right-up" d="M170.667 64h298.667c58.88 0 112.299 23.936 150.869 62.464s62.464 91.989 62.464 150.869v409.003l140.501-140.501c16.683-16.683 43.691-16.683 60.331 0s16.683 43.691 0 60.331l-213.333 213.333c-3.925 3.925-8.619 7.083-13.824 9.259-15.445 6.4-33.92 3.328-46.507-9.259l-213.333-213.333c-16.683-16.683-16.683-43.691 0-60.331s43.691-16.683 60.331 0l140.501 140.501v-409.003c0-35.371-14.293-67.285-37.504-90.496s-55.125-37.504-90.496-37.504h-298.667c-23.552 0-42.667-19.115-42.667-42.667s19.115-42.667 42.667-42.667z" />
<glyph unicode="&#xe91e;" glyph-name="corner-right-up1" d="M170.656 64h298.656c58.88 0 112.288 23.936 150.88 62.464s62.464 92 62.464 150.88v408.992l140.512-140.512c16.672-16.672 43.68-16.672 60.32 0s16.672 43.68 0 60.32l-213.344 213.344c-3.936 3.936-8.608 7.072-13.824 9.248-15.456 6.4-33.92 3.328-46.496-9.248l-213.344-213.344c-16.672-16.672-16.672-43.68 0-60.32s43.68-16.672 60.32 0l140.512 140.512v-408.992c0-35.36-14.304-67.296-37.504-90.496s-55.136-37.504-90.496-37.504h-298.656c-23.552 0-42.656-19.104-42.656-42.656s19.104-42.656 42.656-42.656z" />
<glyph unicode="&#xe91f;" glyph-name="Dialog-4" d="M441.261 71.597l10.46 16.691c16.763 26.745 25.145 40.122 38.499 47.582 13.35 7.456 30.766 7.983 65.6 9.038 32.662 0.986 54.613 3.675 73.383 11.017 39.515 15.459 70.91 45.113 87.279 82.432 12.277 27.993 12.277 63.477 12.277 134.447v30.462c0 99.715 0 149.575-23.768 186.202-13.297 20.495-31.539 37.726-53.24 50.285-38.783 22.445-91.572 22.445-197.154 22.445h-96.765c-105.583 0-158.374 0-197.155-22.445-21.7-12.559-39.945-29.79-53.243-50.285-23.765-36.627-23.765-86.487-23.765-186.202v-30.462c0-70.971 0-106.454 12.276-134.447 16.368-37.319 47.764-66.973 87.28-82.432 18.769-7.342 40.72-10.031 73.381-11.017 34.832-1.054 52.249-1.582 65.6-9.038 13.352-7.46 21.734-20.837 38.497-47.582l10.46-16.691c15.585-24.868 54.516-24.868 70.1 0zM547.324 357.573c22.266 0 40.319 17.048 40.319 38.078s-18.053 38.078-40.319 38.078c-22.266 0-40.315-17.048-40.315-38.078s18.049-38.078 40.315-38.078zM446.528 395.651c0-21.030-18.049-38.078-40.315-38.078-22.27 0-40.32 17.048-40.32 38.078s18.050 38.078 40.32 38.078c22.266 0 40.315-17.048 40.315-38.078zM265.098 357.573c22.267 0 40.318 17.048 40.318 38.078s-18.051 38.078-40.318 38.078c-22.267 0-40.318-17.048-40.318-38.078s18.051-38.078 40.318-38.078zM634.554 843.063c48.177 0 86.486 0 117.21-2.759 31.505-2.829 58.14-8.759 81.871-22.492 24.413-14.129 44.938-33.514 59.896-56.571 14.541-22.41 20.821-47.567 23.817-77.321 2.92-29.017 2.92-65.201 2.92-110.7v-31.077c0-32.381 0-58.137-1.509-79.022-1.544-21.367-4.767-39.716-12.303-56.896-18.413-41.988-53.733-75.344-98.19-92.736-1.111-0.432-2.226-0.853-3.353-1.259-5.367-1.938-9.963-3.599-13.998-4.836 0.588 18.523 0.588 39.617 0.588 63.424v35.252c0 47.472 0 87.237-3.254 119.565-3.406 33.846-10.82 65.608-29.757 94.797-18.474 28.468-43.816 52.404-73.959 69.849-30.906 17.887-64.535 24.887-100.371 28.105-34.232 3.074-76.337 3.073-126.601 3.072h-102.699c-34.137 0.001-64.511 0.002-91.21-0.961 1.244 4.071 2.948 8.737 4.948 14.215 3.402 9.316 7.702 18.126 13.155 26.53 14.96 23.057 35.486 42.442 59.898 56.571 23.728 13.733 50.365 19.663 81.87 22.492 30.724 2.759 69.037 2.759 117.21 2.759h93.821z" />
<glyph unicode="&#xe920;" glyph-name="Dialog-3" d="M440.544 89.568l10.432 16.672c16.736 26.72 25.12 40.064 38.432 47.52s30.72 7.968 65.504 9.024c32.608 0.992 54.528 3.68 73.248 11.008 39.456 15.424 70.784 45.024 87.136 82.304 12.256 27.936 12.256 63.36 12.256 134.24v30.432c0 99.552 0 149.344-23.712 185.888-13.28 20.448-31.488 37.664-53.152 50.208-38.72 22.4-91.424 22.4-196.832 22.4h-96.608c-105.408 0-158.112 0-196.832-22.4-21.664-12.544-39.872-29.728-53.152-50.208-23.712-36.576-23.712-86.336-23.712-185.888v-30.432c0-70.848 0-106.272 12.256-134.24 16.352-37.248 47.68-66.88 87.136-82.304 18.752-7.328 40.64-10.016 73.248-11.008 34.784-1.056 52.16-1.568 65.504-9.024s21.696-20.8 38.432-47.52l10.432-16.672c15.552-24.832 54.432-24.832 69.984 0zM546.432 375.072c22.24 0 40.256 17.024 40.256 38.016s-18.016 38.016-40.256 38.016c-22.24 0-40.256-17.024-40.256-38.016s18.016-38.016 40.256-38.016zM445.792 413.088c0-20.992-18.016-38.016-40.256-38.016s-40.256 17.024-40.256 38.016 18.016 38.016 40.256 38.016c22.24 0 40.256-17.024 40.256-38.016zM264.672 375.072c22.24 0 40.256 17.024 40.256 38.016s-18.016 38.016-40.256 38.016c-22.24 0-40.256-17.024-40.256-38.016s18.016-38.016 40.256-38.016zM633.536 859.776c48.096 0 86.336 0 117.024-2.752 31.456-2.816 58.048-8.736 81.728-22.464 24.384-14.112 44.864-33.472 59.808-56.48 14.528-22.368 20.8-47.488 23.776-77.184 2.912-28.96 2.912-65.088 2.912-110.528v-31.040c0-32.32 0-58.048-1.504-78.88-1.536-21.344-4.768-39.648-12.288-56.8-18.368-41.92-53.632-75.232-98.016-92.576-1.12-0.416-2.208-0.864-3.36-1.248-5.344-1.92-9.952-3.584-13.984-4.832 0.576 18.496 0.576 39.552 0.576 63.328v35.2c0 47.392 0 87.104-3.232 119.36-3.392 33.792-10.816 65.504-29.696 94.656-18.432 28.416-43.744 52.32-73.824 69.728-30.848 17.856-64.416 24.832-100.224 28.064-34.176 3.072-76.224 3.072-126.4 3.072h-102.528c-34.080 0-64.416 0-91.072-0.96 1.248 4.064 2.944 8.736 4.928 14.208 3.392 9.312 7.68 18.112 13.12 26.496 14.944 23.008 35.424 42.368 59.808 56.48 23.68 13.696 50.272 19.616 81.728 22.464 30.688 2.752 68.928 2.752 117.024 2.752h93.664z" />
<glyph unicode="&#xe921;" glyph-name="filter" d="M846.72 789.333l-281.984-333.397c-6.272-7.381-10.069-17.024-10.069-27.563v-295.339l-85.333 42.667v252.672c0.043 9.685-3.285 19.499-10.069 27.563l-281.984 333.397zM938.667 874.667h-853.333c-23.552 0-42.667-19.115-42.667-42.667 0-10.539 3.797-20.181 10.069-27.563l331.264-391.68v-263.424c0-16.597 9.472-31.019 23.595-38.144l170.667-85.333c21.077-10.539 46.72-2.005 57.259 19.072 3.072 6.229 4.523 12.843 4.48 19.072v348.757l331.264 391.68c15.232 18.005 12.971 44.928-5.035 60.117-8.064 6.827-17.877 10.155-27.563 10.112z" />
<glyph unicode="&#xe922;" glyph-name="filter1" d="M176.128 874.656h671.712c50.176 0 90.816-41.856 90.816-93.536v-65.344c0-25.056-9.792-49.152-27.2-66.688l-277.536-280.736c-4.8-4.896-11.296-7.616-18.016-7.552l-232.384 0.736c-7.072 0-13.792 3.040-18.624 8.32l-255.040 280.512c-15.776 17.344-24.512 40.224-24.512 64v66.752c0 51.68 40.64 93.568 90.816 93.568zM395.936 284.832l207.136-0.64c12.928-0.032 23.36-10.848 23.36-24.128v-116.512c0-13.312-7.552-25.344-19.328-30.912l-188.032-88.288c-4.384-2.048-9.056-3.040-13.696-3.040-6.208 0-12.384 1.824-17.792 5.376-9.44 6.24-15.168 17.024-15.168 28.544v205.44c0 13.344 10.528 24.16 23.488 24.128z" />
<glyph unicode="&#xe923;" glyph-name="folder" d="M981.333 149.333v469.333c0 35.328-14.379 67.413-37.504 90.496s-55.168 37.504-90.496 37.504h-361.173l-72.661 109.013c-7.765 11.52-20.736 18.987-35.499 18.987h-213.333c-35.328 0-67.413-14.379-90.496-37.504s-37.504-55.168-37.504-90.496v-597.333c0-35.328 14.379-67.413 37.504-90.496s55.168-37.504 90.496-37.504h682.667c35.328 0 67.413 14.379 90.496 37.504s37.504 55.168 37.504 90.496zM896 149.333c0-11.776-4.736-22.4-12.501-30.165s-18.389-12.501-30.165-12.501h-682.667c-11.776 0-22.4 4.736-30.165 12.501s-12.501 18.389-12.501 30.165v597.333c0 11.776 4.736 22.4 12.501 30.165s18.389 12.501 30.165 12.501h190.507l72.661-109.013c8.192-12.245 21.589-18.901 35.499-18.987h384c11.776 0 22.4-4.736 30.165-12.501s12.501-18.389 12.501-30.165z" />
<glyph unicode="&#xe924;" glyph-name="folder1" d="M88.288 735.648c-2.944-15.68-2.944-34.496-2.944-72.16v-300.8c0-160.896 0-241.376 49.984-291.36s130.432-49.984 291.36-49.984h170.656c160.896 0 241.376 0 291.36 49.984s49.984 130.432 49.984 291.36v93.952c0 112.32 0 168.48-32.832 204.96-3.008 3.36-6.208 6.56-9.568 9.568-36.512 32.832-92.672 32.832-204.96 32.832h-15.936c-49.216 0-73.824 0-96.768 6.528-12.608 3.584-24.736 8.608-36.192 14.976-20.832 11.584-38.24 28.992-73.056 63.808l-23.488 23.488c-11.68 11.68-17.504 17.504-23.616 22.592-26.432 21.92-58.848 35.328-93.024 38.528-7.936 0.736-16.192 0.736-32.672 0.736-37.664 0-56.48 0-72.16-2.944-69.024-13.024-123.040-67.040-136.064-136.064zM522.656 533.344c0 17.664 14.336 32 32 32h213.344c17.664 0 32-14.336 32-32s-14.336-32-32-32h-213.344c-17.664 0-32 14.336-32 32z" />
<glyph unicode="&#xe925;" glyph-name="folder-f" d="M629.344 714.656h61.952c16 0 30.88 0 44.704-0.096v-207.648l-30.464 17.024c-1.472 0.832-4.16 2.336-6.816 3.488-3.488 1.536-9.024 3.488-16.064 3.488s-12.576-1.952-16.064-3.488c-2.656-1.184-5.344-2.688-6.816-3.488l-0.384-0.224-30.080-16.8v207.744zM938.656 467.296v-93.952c0-160.896 0-241.376-49.984-291.36s-130.432-49.984-291.36-49.984h-170.656c-160.896 0-241.344 0-291.36 49.984s-49.984 130.432-49.984 291.36v300.8c0 37.664 0 56.48 2.944 72.16 13.024 69.024 67.040 123.040 136.064 136.064 15.68 2.944 34.496 2.944 72.16 2.944 16.512 0 24.736 0 32.672-0.736 34.176-3.2 66.592-16.64 93.024-38.528 6.144-5.088 11.968-10.912 23.616-22.592l23.488-23.488c34.816-34.816 52.224-52.224 73.056-63.808 7.392-4.096 15.040-7.648 22.944-10.624v-243.552c0-5.76 0-12.896 0.8-18.88 0.832-6.208 3.52-20.384 17.088-29.76 14.816-10.24 29.984-6.368 36.864-3.84 5.792 2.112 12.032 5.632 16.512 8.128l46.112 25.76 46.112-25.76c4.48-2.496 10.72-6.016 16.512-8.128 6.912-2.528 22.048-6.368 36.864 3.84 13.536 9.344 16.256 23.52 17.088 29.76 0.8 5.984 0.8 13.12 0.8 18.88v230.656c44.736-3.072 74.112-10.912 96.256-30.816 3.36-3.008 6.56-6.208 9.568-9.568 32.832-36.512 32.832-92.672 32.832-204.96z" />
<glyph unicode="&#xe926;" glyph-name="Frame-1486" d="M409.6 678.4h460.8c42.415 0 76.8-34.385 76.8-76.8s-34.385-76.8-76.8-76.8h-460.8c-42.415 0-76.8 34.385-76.8 76.8s34.385 76.8 76.8 76.8zM153.6 371.2h716.8c42.415 0 76.8-34.385 76.8-76.8s-34.385-76.8-76.8-76.8h-716.8c-42.415 0-76.8 34.385-76.8 76.8s34.385 76.8 76.8 76.8z" />
<glyph unicode="&#xe927;" glyph-name="frame" d="M409.6 678.4h460.8c42.415 0 76.8-34.385 76.8-76.8s-34.385-76.8-76.8-76.8h-460.8c-42.415 0-76.8 34.385-76.8 76.8s34.385 76.8 76.8 76.8zM153.6 371.2h716.8c42.415 0 76.8-34.385 76.8-76.8s-34.385-76.8-76.8-76.8h-716.8c-42.415 0-76.8 34.385-76.8 76.8s34.385 76.8 76.8 76.8z" />
<glyph unicode="&#xe928;" glyph-name="heart" d="M934.176 791.52c-116.128 115.072-301.824 117.472-422.112 9.216-120.32 108.256-305.952 105.856-422.144-9.216-119.712-118.528-119.712-310.688 0-429.28 34.208-33.888 353.696-350.112 353.696-350.112 37.856-37.504 99.072-37.504 136.896 0 0 0 349.824 346.304 353.696 350.112 119.744 118.592 119.744 310.752-0.032 429.28zM888.576 407.424l-353.696-350.112c-12.576-12.512-33.088-12.512-45.6 0l-353.696 350.112c-94.4 93.44-94.4 245.472 0 338.912 91.008 90.080 237.312 93.248 333.088 7.104l43.392-39.040 43.36 39.040c95.808 86.144 242.112 83.008 333.12-7.104 94.4-93.408 94.4-245.44 0.032-338.912zM296.096 719.968c8.864 0 16-7.168 16-16s-7.168-16-16-16h-0.032c-57.408 0-103.968-46.56-103.968-103.968v-0.032c0-8.832-7.168-16-16-16s-16 7.168-16 16v0c0 75.072 60.832 135.904 135.872 135.968 0.064 0 0.064 0.032 0.128 0.032z" />
<glyph unicode="&#xe929;" glyph-name="instagram" d="M690.784 874.656h-357.536c-155.296 0-247.904-92.576-247.904-247.904v-357.12c0-155.744 92.576-248.32 247.904-248.32h357.12c155.296 0 247.904 92.576 247.904 247.904v357.536c0.416 155.296-92.16 247.904-247.456 247.904zM512 282.464c-91.296 0-165.536 74.24-165.536 165.536s74.24 165.536 165.536 165.536c91.296 0 165.536-74.24 165.536-165.536s-74.24-165.536-165.536-165.536zM764.576 666.464c-2.144-5.12-5.12-9.824-8.96-14.080-4.256-3.84-8.96-6.816-14.080-8.96s-10.656-3.424-16.224-3.424c-11.52 0-22.176 4.256-30.304 12.384-3.84 4.256-6.816 8.96-8.96 14.080s-3.424 10.656-3.424 16.224c0 5.536 1.28 11.104 3.424 16.224 2.144 5.536 5.12 9.824 8.96 14.080 9.824 9.824 24.736 14.496 38.4 11.52 2.976-0.416 5.536-1.28 8.096-2.56 2.56-0.864 5.12-2.144 7.68-3.84 2.144-1.28 4.256-3.424 6.4-5.12 3.84-4.256 6.816-8.544 8.96-14.080 2.144-5.12 3.424-10.656 3.424-16.224s-1.28-11.104-3.424-16.224z" />
<glyph unicode="&#xe92a;" glyph-name="instagram-1" d="M690.784 874.656h-357.536c-155.296 0-247.904-92.576-247.904-247.904v-357.12c0-155.744 92.576-248.32 247.904-248.32h357.12c155.296 0 247.904 92.576 247.904 247.904v357.536c0.416 155.296-92.16 247.904-247.456 247.904zM512 282.464c-91.296 0-165.536 74.24-165.536 165.536s74.24 165.536 165.536 165.536c91.296 0 165.536-74.24 165.536-165.536s-74.24-165.536-165.536-165.536zM764.576 666.464c-2.144-5.12-5.12-9.824-8.96-14.080-4.256-3.84-8.96-6.816-14.080-8.96s-10.656-3.424-16.224-3.424c-11.52 0-22.176 4.256-30.304 12.384-3.84 4.256-6.816 8.96-8.96 14.080s-3.424 10.656-3.424 16.224c0 5.536 1.28 11.104 3.424 16.224 2.144 5.536 5.12 9.824 8.96 14.080 9.824 9.824 24.736 14.496 38.4 11.52 2.976-0.416 5.536-1.28 8.096-2.56 2.56-0.864 5.12-2.144 7.68-3.84 2.144-1.28 4.256-3.424 6.4-5.12 3.84-4.256 6.816-8.544 8.96-14.080 2.144-5.12 3.424-10.656 3.424-16.224s-1.28-11.104-3.424-16.224z" />
<glyph unicode="&#xe92b;" d="M208.271 539.455c-83.070 31.38-124.605 47.071-124.605 66.569s41.535 35.189 124.605 66.571l117.478 44.381c83.069 31.382 124.606 47.073 176.219 47.073s93.146-15.691 176.215-47.073l117.479-44.381c83.069-31.382 124.606-47.073 124.606-66.571s-41.536-35.189-124.606-66.569l-117.479-44.381c-83.069-31.384-124.602-47.074-176.215-47.074s-93.15 15.69-176.219 47.074l-117.478 44.381z" />
<glyph unicode="&#xe92c;" d="M83.666 606.024c0-19.498 41.535-35.189 124.605-66.569l117.478-44.381c83.069-31.384 124.606-47.074 176.219-47.074s93.146 15.69 176.215 47.074l117.479 44.381c83.069 31.38 124.606 47.071 124.606 66.569s-41.536 35.189-124.606 66.571l-117.479 44.381c-83.069 31.382-124.602 47.073-176.215 47.073s-93.15-15.691-176.219-47.073l-117.478-44.381c-83.070-31.382-124.605-47.073-124.605-66.571z" />
<glyph unicode="&#xe92d;" d="M241.204 527.011l-32.933-12.44c-83.070-31.384-124.605-47.074-124.605-66.571s41.535-35.191 124.605-66.571l117.478-44.381c83.069-31.384 124.606-47.074 176.219-47.074s93.146 15.69 176.215 47.074l117.479 44.381c83.069 31.38 124.606 47.074 124.606 66.571s-41.536 35.188-124.606 66.571l-32.931 12.44-84.548-31.937c-83.069-31.384-124.602-47.074-176.215-47.074s-93.15 15.69-176.219 47.074l-84.546 31.937z" />
<glyph unicode="&#xe92e;" d="M241.204 368.989l-32.933-12.443c-83.070-31.38-124.605-47.070-124.605-66.568 0-19.502 41.535-35.191 124.605-66.571l117.478-44.381c83.069-31.384 124.606-47.074 176.219-47.074s93.146 15.69 176.215 47.074l117.479 44.381c83.069 31.38 124.606 47.070 124.606 66.571 0 19.498-41.536 35.188-124.606 66.568l-32.931 12.443-84.548-31.941c-83.069-31.38-124.602-47.070-176.215-47.070s-93.15 15.69-176.219 47.070l-84.546 31.941z" />
<glyph unicode="&#xe92f;" d="M207.936 556.672c-82.944 31.328-124.416 47.008-124.416 66.464s41.472 35.136 124.416 66.464l117.28 44.32c82.944 31.328 124.416 47.008 175.936 47.008s92.992-15.68 175.936-47.008l117.28-44.32c82.944-31.328 124.416-47.008 124.416-66.464s-41.472-35.136-124.416-66.464l-117.28-44.32c-82.944-31.328-124.416-47.008-175.936-47.008s-92.992 15.648-175.936 47.008l-117.28 44.32z" />
<glyph unicode="&#xe930;" d="M83.52 623.136c0-19.456 41.472-35.136 124.416-66.464l117.28-44.32c82.944-31.328 124.416-47.008 175.936-47.008s92.992 15.648 175.936 47.008l117.28 44.32c82.944 31.328 124.416 47.008 124.416 66.464s-41.472 35.136-124.416 66.464l-117.28 44.32c-82.944 31.328-124.416 47.008-175.936 47.008s-92.992-15.68-175.936-47.008l-117.28-44.32c-82.944-31.328-124.416-47.008-124.416-66.464z" />
<glyph unicode="&#xe931;" d="M240.8 544.256l-32.864-12.416c-82.944-31.328-124.416-47.008-124.416-66.464s41.472-35.136 124.416-66.464l117.28-44.32c82.944-31.328 124.416-47.008 175.936-47.008s92.992 15.68 175.936 47.008l117.28 44.32c82.944 31.328 124.416 47.008 124.416 66.464s-41.472 35.136-124.416 66.464l-32.864 12.416-84.416-31.872c-82.944-31.328-124.416-47.008-175.936-47.008s-92.992 15.648-175.936 47.008l-84.416 31.872z" />
<glyph unicode="&#xe932;" d="M240.8 386.464l-32.864-12.416c-82.944-31.328-124.416-47.008-124.416-66.464s41.472-35.136 124.416-66.464l117.28-44.32c82.944-31.328 124.416-47.008 175.936-47.008s92.992 15.68 175.936 47.008l117.28 44.32c82.944 31.328 124.416 47.008 124.416 66.464s-41.472 35.136-124.416 66.464l-32.864 12.416-84.416-31.904c-82.944-31.328-124.416-47.008-175.936-47.008s-92.992 15.648-175.936 47.008l-84.416 31.904z" />
<glyph unicode="&#xe933;" glyph-name="Letter-Opened" d="M426.667 21.325h170.667c160.905 0 241.36 0 291.345 49.988 49.988 49.985 49.988 130.438 49.988 291.345 0 160.905 0 241.36-49.988 291.345-15.471 15.471-33.883 26.155-56.695 33.531 0.020-7.233 0.017-14.63 0.017-22.156v-92.078c0-1.252 0.011-2.617 0.026-4.082 0.125-14.527 0.338-38.872-10.095-61.147-10.433-22.272-29.272-37.697-40.511-46.899-1.124-0.919-2.199-1.798-3.152-2.594l-64.279-53.564c-36.725-30.609-68.693-57.253-97.434-75.736-30.979-19.925-64.489-34.66-104.556-34.66s-73.577 14.734-104.556 34.66c-28.74 18.483-60.709 45.127-97.434 75.736l-64.277 53.564c-0.962 0.802-2.018 1.667-3.151 2.594-11.24 9.202-30.078 24.627-40.511 46.899-10.433 22.275-10.221 46.62-10.095 61.147 0.013 1.465 0.025 2.83 0.025 4.082v92.080c-0.001 7.532-0.001 14.927 0.017 22.168-22.811-7.377-41.215-18.064-56.697-33.546-49.987-49.985-49.987-130.441-49.987-291.345 0-160.907 0-241.36 49.987-291.345 49.987-49.988 130.44-49.988 291.346-49.988zM286.709 507.748l61.409-51.174c78.362-65.303 117.544-97.954 163.886-97.954 46.345 0 85.524 32.651 163.888 97.954l61.409 51.174c15.098 12.581 22.647 18.873 26.675 27.472 4.028 8.602 4.028 18.429 4.028 38.081v88.033c0 13.679 0 26.43-0.077 38.328-0.501 75.566-4.173 116.771-31.164 143.763-31.243 31.242-81.525 31.242-182.093 31.242h-85.333c-100.565 0-150.849 0-182.090-31.242-26.993-26.992-30.743-68.197-31.243-143.763-0.079-11.898 0-24.649 0-38.328v-88.033c0-19.652 0-29.48 4.028-38.081 4.028-8.599 11.578-14.891 26.677-27.472zM394.667 704c0 17.673 14.327 32 32 32h170.667c17.673 0 32-14.327 32-32s-14.327-32-32-32h-170.667c-17.673 0-32 14.327-32 32zM437.333 576c0 17.673 14.327 32 32 32h85.333c17.673 0 32-14.327 32-32s-14.327-32-32-32h-85.333c-17.673 0-32 14.327-32 32z" />
<glyph unicode="&#xe934;" glyph-name="Letter-Opened1" d="M426.656 21.312h170.656c160.896 0 241.376 0 291.36 49.984s49.984 130.432 49.984 291.36c0 160.896 0 241.376-49.984 291.36-15.456 15.456-33.888 26.144-56.704 33.536 0.032-7.232 0.032-14.624 0.032-22.144v-92.064c0-1.248 0-2.624 0.032-4.096 0.128-14.528 0.352-38.88-10.080-61.152s-29.28-37.696-40.512-46.912c-1.12-0.928-2.208-1.792-3.168-2.592l-64.288-53.568c-36.736-30.624-68.704-57.248-97.44-75.744-30.976-19.936-64.48-34.656-104.544-34.656s-73.568 14.72-104.544 34.656c-28.736 18.496-60.704 45.12-97.44 75.744l-64.288 53.568c-0.96 0.8-2.016 1.664-3.136 2.592-11.232 9.216-30.080 24.64-40.512 46.912s-10.208 46.624-10.080 61.152c0 1.472 0.032 2.816 0.032 4.096v92.064c0 7.52 0 14.912 0.032 22.176-22.816-7.392-41.216-18.080-56.704-33.536-49.984-49.984-49.984-130.432-49.984-291.36s0-241.376 49.984-291.36c49.984-49.984 130.432-49.984 291.36-49.984zM286.72 507.744l61.408-51.168c78.368-65.312 117.536-97.952 163.872-97.952s85.536 32.64 163.904 97.952l61.408 51.168c15.104 12.576 22.656 18.88 26.688 27.456s4.032 18.432 4.032 38.080v88.032c0 13.664 0 26.432-0.064 38.336-0.512 75.552-4.16 116.768-31.168 143.776-31.232 31.232-81.536 31.232-182.080 31.232h-85.344c-100.576 0-150.848 0-182.080-31.232-27.008-26.976-30.752-68.192-31.232-143.776-0.064-11.904 0-24.64 0-38.336v-88.032c0-19.648 0-29.472 4.032-38.080s11.584-14.88 26.688-27.456zM394.656 704c0 17.664 14.336 32 32 32h170.656c17.664 0 32-14.336 32-32s-14.336-32-32-32h-170.656c-17.664 0-32 14.336-32 32zM437.344 576c0 17.664 14.336 32 32 32h85.344c17.664 0 32-14.336 32-32s-14.336-32-32-32h-85.344c-17.664 0-32 14.336-32 32z" />
<glyph unicode="&#xe937;" glyph-name="magnifying-glass" d="M636.16 263.68c0 0 161.28-161.28 229.536-229.984 16.64-16.64 43.936-16.64 60.576 0 7.68 8.096 12.384 19.2 12.384 30.304s-4.704 22.176-12.384 30.304c-68.704 68.256-229.984 229.76-229.984 229.76 44.8 57.824 71.68 130.432 71.68 209.28 0 188.384-153.184 341.344-341.344 341.344s-341.344-152.96-341.344-341.344c0-188.384 153.184-341.344 341.344-341.344 78.944 0 151.456 26.88 209.504 71.68zM426.656 789.344c141.216 0 256-114.72 256-256s-114.784-256-256-256-256 114.72-256 256 114.784 256 256 256z" />
<glyph unicode="&#xe938;" glyph-name="map-point" d="M181.344 596.704c0 173.312 150.24 309.952 330.656 309.952s330.656-136.64 330.656-309.952c0-162.624-100.832-353.504-263.488-423.008-42.688-18.24-91.68-18.24-134.368 0-162.656 69.504-263.488 260.416-263.488 423.008zM512 842.656c-149.472 0-266.656-112.256-266.656-245.952 0-142.016 89.824-306.56 224.64-364.16 26.624-11.392 57.44-11.392 84.064 0 134.784 57.6 224.64 222.176 224.64 364.16 0 133.696-117.184 245.952-266.656 245.952zM512 629.344c-29.472 0-53.344-23.872-53.344-53.344s23.872-53.344 53.344-53.344c29.472 0 53.344 23.872 53.344 53.344s-23.872 53.344-53.344 53.344zM394.656 576c0 64.8 52.544 117.344 117.344 117.344s117.344-52.544 117.344-117.344c0-64.8-52.544-117.344-117.344-117.344s-117.344 52.544-117.344 117.344zM153.408 320.16c11.872-13.088 10.848-33.344-2.24-45.184-24.224-21.92-33.824-42.944-33.824-61.6 0-32.576 30.88-72.736 106.112-106.592 72.192-32.48 174.208-53.408 288.576-53.408s216.352 20.928 288.576 53.408c75.2 33.856 106.112 73.984 106.112 106.592 0 18.688-9.6 39.68-33.824 61.6-13.088 11.872-14.112 32.096-2.24 45.184s32.096 14.112 45.184 2.24c32.544-29.472 54.88-66.432 54.88-109.056 0-73.44-64.608-129.312-143.84-164.96-82.208-36.992-193.568-59.040-314.816-59.040s-232.608 22.048-314.816 59.040c-79.2 35.648-143.84 91.488-143.84 164.96 0 42.624 22.304 79.584 54.88 109.056 13.088 11.872 33.344 10.848 45.184-2.24z" />
<glyph unicode="&#xe939;" glyph-name="menu1" d="M0 806.4h1024v-102.4h-1024v102.4zM0 499.2h1024v-102.4h-1024v102.4zM0 192h1024v-102.4h-1024v102.4z" />
<glyph unicode="&#xe93a;" glyph-name="messages" d="M450.080 41.472l10.656 18.016c17.088 28.896 25.632 43.328 39.264 51.392s31.392 8.64 66.912 9.76c33.312 1.056 55.712 3.968 74.848 11.904 40.32 16.704 72.32 48.704 89.024 89.024 12.512 30.24 12.512 68.544 12.512 145.184v32.896c0 107.68 0 161.536-24.224 201.088-13.568 22.144-32.16 40.736-54.304 54.304-39.552 24.256-93.408 24.256-201.088 24.256h-98.688c-107.68 0-161.536 0-201.088-24.256-22.144-13.568-40.736-32.16-54.304-54.304-24.224-39.552-24.224-93.408-24.224-201.088v-32.896c0-76.64 0-114.976 12.512-145.184 16.704-40.32 48.704-72.32 89.024-89.024 19.136-7.936 41.536-10.848 74.848-11.904 35.52-1.12 53.28-1.696 66.912-9.76s22.176-22.496 39.264-51.392l10.656-18.016c15.904-26.848 55.616-26.848 71.488 0zM558.272 350.336c22.72 0 41.12 18.4 41.12 41.12s-18.4 41.12-41.12 41.12c-22.72 0-41.12-18.4-41.12-41.12s18.4-41.12 41.12-41.12zM455.456 391.456c0-22.72-18.4-41.12-41.12-41.12s-41.12 18.4-41.12 41.12 18.4 41.12 41.12 41.12c22.72 0 41.12-18.4 41.12-41.12zM270.4 350.336c22.72 0 41.12 18.4 41.12 41.12s-18.4 41.12-41.12 41.12c-22.72 0-41.12-18.4-41.12-41.12s18.4-41.12 41.12-41.12zM647.232 874.656c49.152 0 88.224 0 119.552-2.976 32.128-3.040 59.296-9.472 83.52-24.288 24.896-15.264 45.824-36.192 61.088-61.088 14.848-24.192 21.248-51.36 24.288-83.52 2.976-31.328 2.976-70.432 2.976-119.552v-33.568c0-34.976 0-62.784-1.536-85.344-1.568-23.072-4.864-42.88-12.544-61.44-18.784-45.344-54.816-81.376-100.16-100.16-1.12-0.48-2.272-0.928-3.424-1.376-5.472-2.080-10.144-3.872-14.272-5.216 0.608 20 0.608 42.784 0.608 68.512v38.080c0 51.264 0 94.208-3.328 129.12-3.488 36.544-11.040 70.848-30.368 102.368-18.848 30.752-44.704 56.608-75.424 75.424-31.52 19.328-65.824 26.88-102.368 30.368-34.912 3.328-77.856 3.328-129.12 3.328h-104.768c-34.816 0-65.792 0-93.024-1.024 1.28 4.384 3.008 9.44 5.056 15.36 3.456 10.048 7.84 19.584 13.408 28.64 15.264 24.896 36.192 45.824 61.088 61.088 24.192 14.816 51.36 21.248 83.52 24.288 31.328 2.976 70.4 2.976 119.552 2.976h95.68z" />
<glyph unicode="&#xe93b;" glyph-name="microphone" d="M512 874.656c-135.488 0-245.344-109.824-245.344-245.344v-128c0-135.488 109.824-245.344 245.344-245.344 124.64 0 227.584 92.96 243.264 213.344h-200.608c-17.664 0-32 14.336-32 32s14.336 32 32 32h202.656v64h-202.656c-17.664 0-32 14.336-32 32s14.336 32 32 32h200.608c-15.68 120.384-118.624 213.344-243.264 213.344zM170.656 576c17.664 0 32-14.336 32-32v-42.656c0-170.848 138.496-309.344 309.344-309.344s309.344 138.496 309.344 309.344v42.656c0 17.664 14.336 32 32 32s32-14.336 32-32v-42.656c0-195.392-150.112-355.744-341.344-371.968v-97.344c0-17.664-14.336-32-32-32s-32 14.336-32 32v97.344c-191.2 16.224-341.344 176.576-341.344 371.968v42.656c0 17.664 14.336 32 32 32z" />
<glyph unicode="&#xe93c;" glyph-name="notebook" d="M85.344 271.2v475.552c0 46.848 37.824 84.928 84.576 82.048 41.664-2.56 90.912-7.616 128.736-17.6 44.768-11.808 97.952-36.96 140.032-59.232 13.088-6.944 27.040-11.744 41.312-14.432v-647.616c-12.928 2.848-25.536 7.456-37.44 13.792-42.656 22.72-97.76 49.088-143.904 61.248-37.408 9.888-86.016 14.944-127.36 17.504-47.296 2.944-85.952 41.312-85.952 88.704zM221.088 607.040c-17.152 4.288-34.528-6.144-38.816-23.296s6.144-34.528 23.296-38.816l170.656-42.656c17.152-4.288 34.528 6.144 38.816 23.296s-6.144 34.528-23.296 38.816l-170.656 42.656zM221.088 436.384c-17.152 4.288-34.528-6.144-38.816-23.296s6.144-34.528 23.296-38.816l170.656-42.656c17.152-4.288 34.528 6.144 38.816 23.296s-6.144 34.528-23.296 38.816l-170.656 42.656zM544 89.92v649.312c13.696 3.36 26.976 8.64 39.392 15.84 36.768 21.28 81.856 44.512 120.576 56.128 44.672 13.376 104.672 18.368 152.832 20.032 45.728 1.6 81.824-35.968 81.824-81.728v-478.304c0-47.392-38.656-85.76-85.984-88.704-41.376-2.592-89.952-7.648-127.36-17.504-46.144-12.16-101.248-38.528-143.904-61.248-11.904-6.336-24.512-10.944-37.44-13.792zM818.432 544.96c17.152 4.288 27.552 21.664 23.296 38.816s-21.664 27.584-38.816 23.296l-170.656-42.656c-17.152-4.288-27.584-21.664-23.296-38.816s21.664-27.584 38.816-23.296l170.656 42.656zM818.432 374.304c17.152 4.288 27.552 21.664 23.296 38.816s-21.664 27.584-38.816 23.296l-170.656-42.656c-17.152-4.288-27.584-21.664-23.296-38.816s21.664-27.584 38.816-23.296l170.656 42.656z" />
<glyph unicode="&#xe93d;" glyph-name="pause-circle" d="M981.333 448c0 129.579-52.565 246.997-137.472 331.861s-202.283 137.472-331.861 137.472-246.997-52.565-331.861-137.472-137.472-202.283-137.472-331.861 52.565-246.997 137.472-331.861 202.283-137.472 331.861-137.472 246.997 52.565 331.861 137.472 137.472 202.283 137.472 331.861zM896 448c0-106.069-42.923-201.984-112.469-271.531s-165.461-112.469-271.531-112.469-201.984 42.923-271.531 112.469-112.469 165.461-112.469 271.531 42.923 201.984 112.469 271.531 165.461 112.469 271.531 112.469 201.984-42.923 271.531-112.469 112.469-165.461 112.469-271.531zM469.333 320v256c0 23.552-19.115 42.667-42.667 42.667s-42.667-19.115-42.667-42.667v-256c0-23.552 19.115-42.667 42.667-42.667s42.667 19.115 42.667 42.667zM640 320v256c0 23.552-19.115 42.667-42.667 42.667s-42.667-19.115-42.667-42.667v-256c0-23.552 19.115-42.667 42.667-42.667s42.667 19.115 42.667 42.667z" />
<glyph unicode="&#xe93e;" glyph-name="pause-circle1" d="M512 944c-274.016 0-496-222.016-496-496s222.016-496 496-496 496 222.016 496 496-222.016 496-496 496zM480 288c0-17.6-14.4-32-32-32h-96c-17.6 0-32 14.4-32 32v320c0 17.6 14.4 32 32 32h96c17.6 0 32-14.4 32-32zM704 288c0-17.6-14.4-32-32-32h-96c-17.6 0-32 14.4-32 32v320c0 17.6 14.4 32 32 32h96c17.6 0 32-14.4 32-32z" />
<glyph unicode="&#xe93f;" glyph-name="phone-calling" d="M565.728 879.776c2.816 17.44 19.328 29.28 36.768 26.464 1.088-0.192 4.544-0.864 6.368-1.248 3.648-0.8 8.704-2.048 15.040-3.904 12.672-3.68 30.368-9.76 51.584-19.488 42.496-19.488 99.072-53.568 157.792-112.288s92.8-115.264 112.288-157.792c9.728-21.216 15.808-38.912 19.488-51.584 1.856-6.336 3.104-11.424 3.904-15.040 0.416-1.824 0.704-3.296 0.896-4.352l0.256-1.344c2.816-17.44-8.896-34.624-26.336-37.44-17.408-2.816-33.792 8.96-36.672 26.336-0.096 0.48-0.32 1.728-0.608 2.912-0.512 2.368-1.44 6.112-2.88 11.072-2.88 9.92-7.904 24.64-16.224 42.816-16.64 36.288-46.528 86.368-99.36 139.2s-102.912 82.72-139.2 99.36c-18.176 8.32-32.896 13.344-42.816 16.224-4.96 1.44-11.168 2.88-13.536 3.392-17.376 2.88-29.568 19.36-26.752 36.768zM575.392 732.608c4.864 16.992 22.56 26.848 39.552 21.984l-8.8-30.784c8.8 30.784 8.8 30.784 8.8 30.784l0.128-0.064 0.16-0.032 0.32-0.096 0.832-0.256c0.64-0.192 1.44-0.48 2.4-0.8 1.92-0.672 4.448-1.632 7.552-2.976 6.208-2.656 14.72-6.784 25.152-12.96 20.896-12.352 49.376-32.896 82.88-66.368s54.016-62.016 66.368-82.88c6.176-10.432 10.304-18.912 12.96-25.152 1.344-3.104 2.304-5.632 2.976-7.552 0.352-0.96 0.608-1.76 0.8-2.4l0.352-1.184 0.032-0.128 0.032-0.064c0 0 0.032-0.064-30.752-8.864l30.784 8.8c4.864-16.992-4.992-34.72-21.984-39.552-16.864-4.8-34.4 4.832-39.424 21.536l-0.16 0.448c-0.224 0.64-0.704 1.888-1.504 3.744-1.568 3.68-4.448 9.696-9.216 17.76-9.504 16.064-26.688 40.352-56.544 70.24s-54.144 47.040-70.24 56.576c-8.032 4.768-14.080 7.616-17.76 9.216-1.856 0.8-3.104 1.248-3.744 1.472l-0.448 0.16c-16.736 5.024-26.368 22.592-21.536 39.424zM213.664 771.968c71.68 71.68 192.64 66.24 242.56-23.2l27.68-49.632c32.608-58.4 18.72-132.096-29.024-180.384-0.64-0.864-4-5.76-4.416-14.336-0.544-10.944 3.36-36.224 42.528-75.424s64.448-43.072 75.392-42.528c8.576 0.416 13.472 3.776 14.368 4.416 48.288 47.712 121.984 61.6 180.384 29.024l49.632-27.68c89.44-49.92 94.88-170.88 23.2-242.56-38.336-38.336-89.312-72.416-149.248-74.688-88.8-3.36-236.224 19.552-382.208 165.568s-168.928 293.408-165.568 382.208c2.272 59.904 36.352 110.88 74.688 149.248zM400.32 717.6c-25.568 45.792-94.24 56.32-141.408 9.12-33.088-33.088-54.592-69.6-56-106.4-2.816-74.048 15.488-203.136 146.848-334.528s260.48-149.664 334.528-146.848c36.8 1.408 73.312 22.912 106.4 55.968 47.168 47.168 36.672 115.872-9.12 141.408l-49.632 27.68c-30.88 17.216-74.208 11.36-104.672-19.072-2.976-2.976-22.016-20.736-55.776-22.4-34.56-1.696-76.416 13.856-123.776 61.216s-62.912 89.216-61.216 123.808c1.664 33.76 19.424 52.768 22.4 55.744 30.432 30.432 36.32 73.792 19.104 104.672l-27.68 49.632z" />
<glyph unicode="&#xe940;" glyph-name="play" d="M236.416 867.883c-6.528 4.267-14.507 6.784-23.083 6.784-23.552 0-42.667-19.115-42.667-42.667v-768c-0.043-7.765 2.133-15.872 6.784-23.083 12.757-19.84 39.125-25.557 58.965-12.8l597.333 384c4.864 3.072 9.344 7.424 12.8 12.8 12.757 19.84 6.997 46.208-12.8 58.965zM256 753.835l475.776-305.835-475.776-305.835z" />
<glyph unicode="&#xe941;" glyph-name="play1" d="M236.416 867.872c-6.528 4.256-14.496 6.784-23.072 6.784-23.552 0-42.656-19.104-42.656-42.656v-768c-0.032-7.776 2.144-15.872 6.784-23.072 12.768-19.84 39.136-25.568 58.976-12.8l597.344 384c4.864 3.072 9.344 7.424 12.8 12.8 12.768 19.84 7.008 46.208-12.8 58.976zM256 753.824l475.776-305.824-475.776-305.824z" />
<glyph unicode="&#xe942;" glyph-name="play-circle" d="M512 21.344c-235.648 0-426.656 191.040-426.656 426.656s191.040 426.656 426.656 426.656c235.648 0 426.656-191.040 426.656-426.656s-191.040-426.656-426.656-426.656zM456.256 283.904l201.408 118.912c33.344 19.68 33.344 70.688 0 90.368l-201.408 118.912c-32.416 19.136-72.256-5.76-72.256-45.184v-237.824c0-39.424 39.84-64.32 72.256-45.184z" />
<glyph unicode="&#xe943;" glyph-name="reply" d="M276.033 363.962c-12.497-12.497-12.497-32.76 0-45.257l213.333-213.332c12.497-12.497 32.76-12.497 45.257 0l213.332 213.332c12.497 12.497 12.497 32.76 0 45.257s-32.76 12.497-45.257 0l-158.704-158.708v349.412c0 30.435 9.392 76.799 36.635 114.636 26.067 36.205 69.796 66.698 144.699 66.698 17.67 0 31.998 14.327 31.998 32s-14.328 32-31.998 32c-95.764 0-158.704-40.618-196.637-93.302-36.758-51.053-48.697-111.355-48.697-152.031v-349.412l-158.706 158.708c-12.497 12.497-32.758 12.497-45.255 0z" />
<glyph unicode="&#xe944;" glyph-name="reply-2" d="M276.033 363.962c-12.497-12.497-12.497-32.76 0-45.257l213.333-213.332c12.497-12.497 32.76-12.497 45.257 0l213.332 213.332c12.497 12.497 12.497 32.76 0 45.257s-32.76 12.497-45.257 0l-158.704-158.708v349.412c0 30.435 9.392 76.799 36.635 114.636 26.067 36.205 69.796 66.698 144.699 66.698 17.67 0 31.998 14.327 31.998 32s-14.328 32-31.998 32c-95.764 0-158.704-40.618-196.637-93.302-36.758-51.053-48.697-111.355-48.697-152.031v-349.412l-158.706 158.708c-12.497 12.497-32.758 12.497-45.255 0z" />
<glyph unicode="&#xe945;" glyph-name="search" d="M883.616 136.96l-145.056 144.64c44.96 56.864 72.096 129.568 72.096 208.64 0 0.16 0 0.288 0 0.448v-0.032c0 188.512-152.832 341.344-341.344 341.344s-341.344-152.832-341.344-341.344c0-188.512 152.832-341.344 341.344-341.344v0c0.128 0 0.256 0 0.416 0 79.072 0 151.808 27.168 209.344 72.64l-0.704-0.544 144.64-145.056c7.744-7.808 18.464-12.608 30.304-12.608s22.56 4.832 30.304 12.608v0c7.808 7.744 12.608 18.464 12.608 30.304s-4.832 22.56-12.608 30.304v0zM213.344 490.656c0 141.376 114.624 256 256 256s256-114.624 256-256c0-141.376-114.624-256-256-256v0c-141.376 0-256 114.624-256 256v0z" />
<glyph unicode="&#xe946;" glyph-name="server-square" d="M135.328 782.016c-49.984-49.984-49.984-130.432-49.984-291.36v-10.656h853.344v10.656c0 160.896 0 241.344-49.984 291.36s-130.432 49.984-291.36 49.984h-170.656c-160.896 0-241.344 0-291.36-49.984zM938.656 416h-853.344v-10.656c0-160.896 0-241.344 49.984-291.36s130.432-49.984 291.36-49.984h170.656c160.896 0 241.344 0 291.36 49.984s49.984 130.432 49.984 291.36v10.656zM224 213.344c0-17.664 14.336-32 32-32s32 14.336 32 32v85.344c0 17.664-14.336 32-32 32s-32-14.336-32-32v-85.344zM384 181.344c-17.664 0-32 14.336-32 32v85.344c0 17.664 14.336 32 32 32s32-14.336 32-32v-85.344c0-17.664-14.336-32-32-32zM576 288c-17.664 0-32-14.336-32-32s14.336-32 32-32h192c17.664 0 32 14.336 32 32s-14.336 32-32 32h-192zM384 565.344c-17.664 0-32 14.336-32 32v85.344c0 17.664 14.336 32 32 32s32-14.336 32-32v-85.344c0-17.664-14.336-32-32-32zM224 597.344c0-17.664 14.336-32 32-32s32 14.336 32 32v85.344c0 17.664-14.336 32-32 32s-32-14.336-32-32v-85.344zM544 640c0 17.664 14.336 32 32 32h192c17.664 0 32-14.336 32-32s-14.336-32-32-32h-192c-17.664 0-32 14.336-32 32z" />
<glyph unicode="&#xe947;" glyph-name="settings" d="M972.512 554.24l-98.048 19.648c-4.928 14.176-10.752 27.936-17.184 41.248l55.552 83.328c16.928 25.376 13.568 59.2-8 80.736l-61.568 61.568c-12.384 12.384-28.736 18.752-45.312 18.752-12.256 0-24.64-3.52-35.424-10.752l-83.328-55.52c-13.376 6.464-27.136 12.224-41.312 17.152l-19.648 98.080c-5.952 29.952-32.256 51.456-62.752 51.456h-87.040c-30.496 0-56.768-21.536-62.752-51.456l-19.648-98.080c-14.176-4.928-27.936-10.72-41.248-17.152l-83.296 55.52c-10.848 7.232-23.2 10.752-35.488 10.752-16.544 0-32.896-6.368-45.28-18.752l-61.536-61.568c-21.568-21.568-24.928-55.36-8-80.736l55.52-83.328c-6.464-13.344-12.224-27.104-17.152-41.28l-98.112-19.616c-29.92-5.984-51.456-32.256-51.456-62.752v-87.040c0-30.496 21.536-56.8 51.456-62.752l98.080-19.68c4.928-14.176 10.72-27.936 17.152-41.248l-55.488-83.328c-16.928-25.376-13.568-59.2 8-80.736l61.568-61.568c12.384-12.384 28.736-18.752 45.28-18.752 12.288 0 24.672 3.552 35.456 10.752l83.328 55.552c13.344-6.496 27.104-12.256 41.28-17.184l19.616-98.048c5.984-29.952 32.256-51.488 62.752-51.488h87.040c30.496 0 56.8 21.568 62.752 51.488l19.68 98.048c14.176 4.928 27.936 10.752 41.248 17.184l83.328-55.552c10.816-7.2 23.2-10.752 35.424-10.752 16.576 0 32.928 6.368 45.312 18.752l61.568 61.568c21.568 21.568 24.928 55.36 8 80.736l-55.552 83.328c6.496 13.376 12.256 27.136 17.184 41.312l98.048 19.616c29.92 5.92 51.488 32.256 51.488 62.752v87.040c0 30.496-21.568 56.768-51.488 62.752zM861.888 384.8c-22.24-4.448-40.448-20.32-47.872-41.76-4.128-11.808-8.928-23.264-14.304-34.368-9.952-20.448-8.256-44.576 4.32-63.424l55.552-83.328-61.568-61.568-83.328 55.552c-10.688 7.136-23.072 10.752-35.488 10.752-9.504 0-19.072-2.112-27.872-6.368-11.136-5.376-22.56-10.24-34.432-14.368-21.376-7.424-37.248-25.632-41.696-47.872l-19.68-98.112h-87.040l-19.616 98.112c-4.448 22.24-20.32 40.448-41.728 47.872-11.808 4.128-23.296 8.928-34.4 14.304-8.832 4.32-18.368 6.432-27.904 6.432-12.448 0-24.8-3.616-35.488-10.752l-83.328-55.552-61.568 61.568 55.52 83.328c12.576 18.88 14.208 43.008 4.384 63.36-5.376 11.136-10.208 22.56-14.336 34.432-7.424 21.376-25.664 37.248-47.872 41.696l-98.080 19.68-0.064 87.072 98.112 19.616c22.208 4.448 40.448 20.32 47.872 41.728 4.128 11.808 8.896 23.296 14.304 34.4 9.92 20.416 8.256 44.544-4.352 63.392l-55.488 83.328 61.536 61.568 83.328-55.52c10.688-7.136 23.072-10.752 35.488-10.752 9.504 0 19.040 2.112 27.872 6.368 11.104 5.376 22.56 10.208 34.4 14.336 21.408 7.424 37.28 25.664 41.728 47.872l19.648 98.080 87.040 0.032 19.616-98.112c4.448-22.208 20.32-40.448 41.76-47.872 11.808-4.128 23.264-8.896 34.368-14.304 8.864-4.288 18.368-6.4 27.936-6.4 12.448 0 24.8 3.616 35.488 10.752l83.328 55.52 61.568-61.568-55.552-83.328c-12.576-18.88-14.176-42.976-4.384-63.36 5.376-11.104 10.24-22.56 14.368-34.4 7.424-21.408 25.632-37.28 47.872-41.728l98.048-19.648 0.096-87.040-98.112-19.648zM512 671.968c-123.68 0-224-100.32-224-224 0-123.712 100.32-224 224-224s224 100.32 224 224c0 123.68-100.32 224-224 224zM512 251.936c-108.224 0-196 87.808-196 196s87.776 196 196 196c108.192 0 196-87.776 196-196 0-108.192-87.808-196-196-196zM512 575.968c-70.72 0-128-57.28-128-128s57.28-128 128-128c70.688 0 128 57.312 128 128s-57.312 128-128 128zM512 351.936c-52.992 0-96 43.008-96 96s43.008 96 96 96 96-43.008 96-96c0-52.992-43.008-96-96-96z" />
<glyph unicode="&#xe948;" glyph-name="study" d="M1024 704c0 44.992-30.624 83.456-74.432 93.568l-416.416 96.096c-6.976 1.568-14.080 2.336-21.152 2.336s-14.176-0.768-21.6-2.432l-415.968-96c-43.84-10.112-74.432-48.576-74.432-93.568s30.624-83.456 74.4-93.568l85.6-19.744v-270.688c0-84.928 97.216-160 352-160s352 75.072 352 160v270.688l85.568 19.744c43.808 10.112 74.432 48.576 74.432 93.568zM800 320c0-35.36-96-96-288-96s-288 60.64-288 96v255.904l266.816-61.568c6.976-1.568 14.112-2.336 21.184-2.336s14.208 0.768 21.568 2.432l266.432 61.472v-255.904zM519.2 576.8c-2.4-0.512-4.8-0.8-7.2-0.8s-4.832 0.288-7.2 0.8l-416 96c-14.528 3.36-24.8 16.288-24.8 31.2s10.272 27.84 24.8 31.2l416 96c2.368 0.512 4.768 0.8 7.2 0.8s4.832-0.288 7.2-0.8l416-96c14.496-3.36 24.8-16.288 24.8-31.2s-10.304-27.84-24.8-31.2l-416-96zM928 544c0 17.696 14.304 32 32 32 17.664 0 32-14.304 32-32v-288c0-17.696-14.336-32-32-32-17.696 0-32 14.304-32 32v288zM960 192c35.328 0 64-92.672 64-128s-28.672-64-64-64c-35.36 0-64 28.672-64 64s28.64 128 64 128z" />
<glyph unicode="&#xe949;" glyph-name="tag" d="M1004.512 515.744l-160 256c-23.36 37.408-64.384 60.16-108.512 60.16h-608c-70.688 0-128-57.312-128-128v-512c0-70.688 57.312-128 128-128h608c44.128 0 85.12 22.752 108.512 60.192l160 256c25.984 41.44 25.984 94.144 0 135.648zM950.24 414.016l-160-256.064c-11.744-18.816-32.064-30.048-54.24-30.048h-608c-35.296 0-64 28.736-64 64v512c0 35.296 28.704 64 64 64h608c22.176 0 42.496-11.264 54.24-30.048l160-256c12.896-20.64 12.896-47.264 0-67.84zM736 543.904c-53.056 0-96-42.976-96-96s42.944-96 96-96c52.992 0 96 43.008 96 96 0 53.024-43.008 96-96 96zM736 383.872c-35.36 0-64 28.672-64 64s28.64 64 64 64c35.328 0 64-28.672 64-64s-28.672-64-64-64z" />
<glyph unicode="&#xe94a;" glyph-name="tag-horizontal" d="M548.608 106.656c95.040 0 142.56 0 182.24 21.408s64.864 60.608 115.232 139.040l29.056 45.216c42.368 65.984 63.552 98.976 63.552 135.68s-21.184 69.696-63.552 135.68l-29.056 45.216c-50.368 78.432-75.552 117.632-115.232 139.040s-87.2 21.408-182.24 21.408h-112.512c-165.344 0-248.032 0-299.392-49.984s-51.36-130.432-51.36-291.36c0-160.896 0-241.376 51.36-291.36s134.048-49.984 299.392-49.984h112.512zM298.656 659.008c17.664 0 32-13.472 32-30.112v-361.6c0-16.64-14.336-30.112-32-30.112s-32 13.472-32 30.112v361.6c0 16.64 14.336 30.112 32 30.112z" />
<glyph unicode="&#xe94b;" glyph-name="twitter" d="M888.875 735.488c-7.936-10.325-16.683-20.267-26.283-29.696-9.941-9.899-14.805-24.192-11.861-38.741 1.579-7.765 2.56-17.237 2.603-27.051 0-224.256-103.637-382.763-247.893-464.981-112.939-64.384-253.355-83.413-393.472-47.787 53.12 15.403 104.96 39.296 153.301 72.107 6.272 4.224 11.648 10.368 15.019 17.963 9.557 21.547-0.128 46.763-21.675 56.32-118.357 52.608-176.213 125.056-203.477 195.968-17.792 46.251-23.296 93.781-22.187 137.685 0.896 34.603 5.888 66.56 11.861 93.099 16.811-14.635 34.261-30.123 52.693-44.288 87.509-67.285 197.291-105.771 315.52-102.699 23.168 0.64 41.643 19.499 41.643 42.667v43.136c-0.085 7.637 0.384 15.232 1.451 22.741 4.821 34.389 21.504 66.944 49.579 91.349 30.933 26.923 69.803 38.741 107.776 36.096s74.795-19.755 101.717-50.688c10.752-12.203 27.691-17.749 44.075-12.971 9.856 2.859 19.755 6.101 29.653 9.728zM956.757 866.859c-31.573-22.272-64.981-39.509-97.579-51.413-39.723 35.669-89.216 55.552-139.776 59.093-59.648 4.139-121.003-14.464-169.685-56.832-44.203-38.443-70.485-89.941-78.080-143.872-1.579-11.307-2.347-22.699-2.304-34.133-82.005 6.059-157.568 36.267-219.733 84.053-33.067 25.429-62.379 55.851-86.784 90.283-13.653 19.2-40.277 23.765-59.477 10.112-6.571-4.651-11.392-10.795-14.293-17.451 0 0-5.632-12.757-12.16-32.427-4.779-14.379-10.283-33.067-15.232-55.040-6.955-30.805-12.885-68.352-13.909-109.696-1.323-52.352 5.12-111.445 27.819-170.496 29.141-75.733 83.883-148.395 176.939-205.781-66.944-30.976-138.453-44.331-207.915-41.259-23.552 1.024-43.477-17.195-44.501-40.747-0.725-16.597 8.107-31.403 21.888-39.168 209.28-116.267 444.843-114.261 625.749-11.136 172.373 98.176 290.944 285.867 290.944 539.051-0.043 7.125-0.341 14.080-0.981 20.864 42.923 47.573 71.509 103.637 85.163 161.323 5.419 22.912-8.789 45.909-31.701 51.328-12.373 2.944-24.747 0.128-34.432-6.656z" />
<glyph unicode="&#xe94c;" glyph-name="twitter1" d="M888.864 735.488c-7.936-10.336-16.672-20.256-26.272-29.696-9.952-9.888-14.816-24.192-11.872-38.752 1.568-7.776 2.56-17.248 2.592-27.040 0-224.256-103.648-382.752-247.904-464.992-112.928-64.384-253.344-83.424-393.472-47.776 53.12 15.392 104.96 39.296 153.312 72.096 6.272 4.224 11.648 10.368 15.008 17.952 9.568 21.536-0.128 46.752-21.664 56.32-118.368 52.608-176.224 125.056-203.488 195.968-17.792 46.24-23.296 93.792-22.176 137.696 0.896 34.592 5.888 66.56 11.872 93.088 16.8-14.624 34.272-30.112 52.704-44.288 87.52-67.296 197.28-105.76 315.52-102.688 23.168 0.64 41.632 19.488 41.632 42.656v43.136c-0.096 7.648 0.384 15.232 1.44 22.752 4.832 34.4 21.504 66.944 49.568 91.36 30.944 26.912 69.792 38.752 107.776 36.096s74.784-19.744 101.728-50.688c10.752-12.192 27.68-17.76 44.064-12.96 9.856 2.848 19.744 6.112 29.664 9.728zM956.768 866.848c-31.584-22.272-64.992-39.52-97.568-51.424-39.712 35.68-89.216 55.552-139.776 59.104-59.648 4.128-120.992-14.464-169.696-56.832-44.192-38.432-70.496-89.952-78.080-143.872-1.568-11.296-2.336-22.688-2.304-34.144-82.016 6.048-157.568 36.256-219.744 84.064-33.056 25.44-62.368 55.84-86.784 90.272-13.664 19.2-40.288 23.776-59.488 10.112-6.56-4.64-11.392-10.784-14.304-17.44 0 0-5.632-12.768-12.16-32.416-4.768-14.368-10.272-33.056-15.232-55.040-6.944-30.816-12.896-68.352-13.92-109.696-1.312-52.352 5.12-111.456 27.808-170.496 29.152-75.744 83.872-148.384 176.928-205.792-66.944-30.976-138.464-44.32-207.904-41.248-23.552 1.024-43.488-17.184-44.512-40.736-0.736-16.608 8.096-31.392 21.888-39.168 209.28-116.256 444.832-114.272 625.76-11.136 172.384 98.176 290.944 285.856 290.944 539.040-0.032 7.136-0.352 14.080-0.992 20.864 42.912 47.584 71.52 103.648 85.152 161.312 5.408 22.912-8.8 45.92-31.712 51.328-12.384 2.944-24.736 0.128-34.432-6.656z" />
<glyph unicode="&#xe94d;" glyph-name="user" d="M256 704c0 141.363 114.637 256 256 256s256-114.637 256-256v0-102.4c0-141.363-114.637-256-256-256s-256 114.637-256 256v0 102.4zM0 105.984c146.432 86.272 322.611 137.216 510.669 137.216 0.461 0 0.922 0 1.382 0h-0.051c186.368 0 361.472-49.664 512-137.216v-169.984h-1024v169.984z" />
<glyph unicode="&#xe94e;" glyph-name="videocamera" d="M85.344 469.344v-42.656c0-140.256 0-210.4 38.752-257.6 7.104-8.64 15.008-16.576 23.648-23.648 47.2-38.752 117.344-38.752 257.6-38.752s210.4 0 257.6 38.752c8.64 7.104 16.576 15.008 23.648 23.648 29.92 36.48 36.736 86.624 38.272 172.256l28.544-14.048c83.008-41.504 124.544-62.272 154.88-43.52s30.368 65.184 30.368 157.984v12.448c0 92.832 0 139.232-30.368 157.984s-71.872-1.984-154.88-43.52l-28.544-14.048c-1.536 85.632-8.352 135.808-38.272 172.256-7.104 8.64-15.008 16.576-23.648 23.648-47.2 38.752-117.344 38.752-257.6 38.752s-210.4 0-257.6-38.752c-8.64-7.104-16.576-15.008-23.648-23.648-38.752-47.2-38.752-117.344-38.752-257.6z" />
<glyph unicode="&#xe94f;" glyph-name="whatsapp" d="M872.992 811.2c-95.808 96-223.2 148.8-359.008 148.8-279.616 0-507.2-227.584-507.2-507.392 0-89.408 23.392-176.8 67.808-253.6l-72-263.008 268.992 70.592c74.208-40.384 157.6-61.792 242.4-61.792h0.192c0 0 0 0 0 0 279.616 0 507.392 227.616 507.392 507.392 0 135.616-52.8 263.008-148.608 359.008zM514.208 30.4v0c-75.808 0-150.016 20.384-214.816 58.784l-15.392 9.216-159.584-41.792 42.592 155.616-10.016 16c-42.4 67.008-64.608 144.608-64.608 224.384 0 232.608 189.184 421.792 422.016 421.792 112.608 0 218.592-44 298.208-123.584 79.616-79.808 123.392-185.6 123.392-298.4-0.192-232.8-189.408-422.016-421.792-422.016zM745.408 346.4c-12.608 6.4-75.008 36.992-86.592 41.216s-20 6.4-28.608-6.4c-8.384-12.608-32.8-41.216-40.192-49.792-7.392-8.384-14.784-9.6-27.392-3.2s-53.6 19.808-102.016 63.008c-37.6 33.6-63.2 75.2-70.592 87.808s-0.8 19.616 5.6 25.792c5.792 5.6 12.608 14.816 19.008 22.208s8.384 12.608 12.608 21.184c4.192 8.384 2.208 15.808-0.992 22.208s-28.608 68.8-39.008 94.208c-10.208 24.8-20.8 21.408-28.608 21.792-7.392 0.384-15.808 0.384-24.192 0.384s-22.208-3.2-33.792-15.808c-11.616-12.608-44.384-43.392-44.384-105.792s45.408-122.592 51.808-131.2c6.4-8.384 89.408-136.608 216.608-191.392 30.208-12.992 53.792-20.8 72.192-26.784 30.4-9.6 58.016-8.192 79.808-4.992 24.384 3.616 75.008 30.592 85.6 60.192s10.592 55.008 7.392 60.192c-3.008 5.6-11.392 8.8-24.192 15.2z" />
<glyph unicode="&#xe950;" glyph-name="whatsapp1" d="M937.824 473.184c-14.496 247.456-239.36 438.176-498.336 395.52-178.336-29.44-321.28-174.080-349.024-352.416-16.224-103.264 5.12-200.96 51.616-281.6l-37.984-141.216c-8.544-32 20.896-61.024 52.48-52.064l139.104 38.4c63.136-37.12 136.96-58.464 215.904-58.464 240.64 0 440.32 212.064 426.24 451.84zM720.224 289.28c-3.84-7.68-8.544-14.944-14.496-21.76-10.656-11.52-22.176-20.064-34.976-25.184-12.8-5.536-26.88-8.096-41.824-8.096-21.76 0-45.216 5.12-69.536 15.776-24.736 10.656-49.056 24.736-73.376 42.24-24.736 17.92-47.776 37.984-69.984 59.744-22.176 22.176-41.824 45.664-59.744 69.984-17.504 24.32-31.584 48.64-41.824 72.96s-15.36 47.776-15.36 69.984c0 14.496 2.56 28.576 7.68 41.376 5.12 13.216 13.216 25.184 24.736 35.84 13.664 13.664 28.576 20.064 44.384 20.064 5.984 0 11.936-1.28 17.504-3.84s10.656-6.4 14.496-11.936l49.504-69.984c3.84-5.536 6.816-10.24 8.544-14.944 2.144-4.704 2.976-8.96 2.976-13.216 0-5.12-1.696-10.24-4.704-15.36s-6.816-10.24-11.936-15.36l-16.224-17.056c-2.56-2.56-3.424-5.12-3.424-8.544 0-1.696 0.416-3.424 0.864-5.12 0.864-1.696 1.28-2.976 1.696-4.256 3.84-7.264 10.656-16.224 20.064-27.296 9.824-11.104 20.064-22.624 31.136-33.696 11.52-11.52 22.624-21.76 34.144-31.584 11.104-9.376 20.48-15.776 27.744-19.616 1.28-0.416 2.56-1.28 3.84-1.696 1.696-0.864 3.424-0.864 5.536-0.864 3.84 0 6.4 1.28 8.96 3.84l16.224 16.224c5.536 5.536 10.656 9.376 15.36 11.936 5.12 2.976 9.824 4.704 15.36 4.704 4.256 0 8.544-0.864 13.216-2.976s9.824-4.704 14.944-8.544l70.816-50.336c5.536-3.84 9.376-8.544 11.936-13.664 2.144-5.536 3.424-10.656 3.424-16.64-2.56-7.264-4.256-15.36-7.68-23.040z" />
<glyph unicode="&#xe951;" glyph-name="youtube" d="M725.344 789.344h-426.656c-128 0-213.344-85.344-213.344-213.344v-256c0-128 85.344-213.344 213.344-213.344h426.656c128 0 213.344 85.344 213.344 213.344v256c0 128-85.344 213.344-213.344 213.344zM592.64 404.064l-105.376-63.136c-42.656-25.6-77.664-5.984-77.664 43.936v126.72c0 49.92 34.976 69.536 77.664 43.936l105.376-63.136c40.544-24.736 40.544-64 0-88.32z" />
</font>
</defs>
</svg>
